HIERARCHY
ROOT Hips
{
	OFFSET -0.001795 -0.223333 0.028219
	CHANNELS 6 Xposition Yposition Zposition Zrotation Yrotation Xrotation 
	JOINT LeftUpLeg
	{
		OFFSET 0.069520 -0.091406 -0.006815
		CHANNELS 3 Zrotation Yrotation Xrotation
		JOINT LeftLeg
		{
			OFFSET 0.034277 -0.375199 -0.004496
			CHANNELS 3 Zrotation Yrotation Xrotation
			JOINT LeftFoot
			{
				OFFSET -0.013596 -0.397961 -0.043693
				CHANNELS 3 Zrotation Yrotation Xrotation
				JOINT LeftToe
				{
					OFFSET 0.026358 -0.055791 0.119288
					CHANNELS 3 Zrotation Yrotation Xrotation
					End Site
					{
						OFFSET 0.000000 0.000000 0.000000
					}
				}
			}
		}
	}
	JOINT RightUpLeg
	{
		OFFSET -0.067670 -0.090522 -0.004320
		CHANNELS 3 Zrotation Yrotation Xrotation
		JOINT RightLeg
		{
			OFFSET -0.038290 -0.382569 -0.008850
			CHANNELS 3 Zrotation Yrotation Xrotation
			JOINT RightFoot
			{
				OFFSET 0.015774 -0.398415 -0.042312
				CHANNELS 3 Zrotation Yrotation Xrotation
				JOINT RightToe
				{
					OFFSET -0.025372 -0.048144 0.123348
					CHANNELS 3 Zrotation Yrotation Xrotation
					End Site
					{
						OFFSET 0.000000 0.000000 0.000000
					}
				}
			}
		}
	}
	JOINT Spine
	{
		OFFSET -0.002533 0.108963 -0.026696
		CHANNELS 3 Zrotation Yrotation Xrotation
		JOINT Spine1
		{
			OFFSET 0.005487 0.135180 0.001092
			CHANNELS 3 Zrotation Yrotation Xrotation
			JOINT Spine2
			{
				OFFSET 0.001457 0.052922 0.025425
				CHANNELS 3 Zrotation Yrotation Xrotation
				JOINT Neck
				{
					OFFSET -0.002778 0.213870 -0.042857
					CHANNELS 3 Zrotation Yrotation Xrotation
					JOINT Head
					{
						OFFSET 0.005152 0.064970 0.051349
						CHANNELS 3 Zrotation Yrotation Xrotation
						End Site
						{
							OFFSET 0.000000 0.000000 0.000000
						}
					}
				}
				JOINT LeftShoulder
				{
					OFFSET 0.078845 0.121749 -0.034090
					CHANNELS 3 Zrotation Yrotation Xrotation
					JOINT LeftArm
					{
						OFFSET 0.090977 0.030469 -0.008868
						CHANNELS 3 Zrotation Yrotation Xrotation
						JOINT LeftForeArm
						{
							OFFSET 0.259612 -0.012772 -0.027456
							CHANNELS 3 Zrotation Yrotation Xrotation
							JOINT LeftHand
							{
								OFFSET 0.249234 0.008986 -0.001171
								CHANNELS 3 Zrotation Yrotation Xrotation
								End Site
								{
									OFFSET 0.000000 0.000000 0.000000
								}
							}
						}
					}
				}
				JOINT RightShoulder
				{
					OFFSET -0.081759 0.118833 -0.038615
					CHANNELS 3 Zrotation Yrotation Xrotation
					JOINT RightArm
					{
						OFFSET -0.096012 0.032551 -0.009143
						CHANNELS 3 Zrotation Yrotation Xrotation
						JOINT RightForeArm
						{
							OFFSET -0.253742 -0.013329 -0.021401
							CHANNELS 3 Zrotation Yrotation Xrotation
							JOINT RightHand
							{
								OFFSET -0.255298 0.007772 -0.005559
								CHANNELS 3 Zrotation Yrotation Xrotation
								End Site
								{
									OFFSET 0.000000 0.000000 0.000000
								}
							}
						}
					}
				}
			}
		}
	}
}
MOTION
Frames: 14
Frame Time: 0.050000
0.063722 0.672757 1.089912 -7.140672 -10.230203 60.207472 2.175205 -0.620853 -17.764032 -4.521017 1.939092 19.493027 -1.699305 6.889697 43.667161 0.000000 0.000000 0.000000 0.698879 2.587696 -19.302803 -2.434130 2.133245 18.630967 6.594551 -6.545001 35.941701 0.000000 0.000000 0.000000 1.268130 -0.815590 34.298144 -9.785126 3.743800 -81.251812 -2.466548 0.418952 39.116466 17.838746 -7.373796 -34.222846 0.000000 0.000000 0.000000 -13.461494 -8.537870 5.695118 -42.194984 -10.578209 -3.918606 -25.148572 -53.456129 17.255094 0.000000 0.000000 0.000000 28.763890 3.518064 -2.991539 45.042393 -0.738619 -5.699860 37.151075 43.791452 15.559985 0.000000 0.000000 0.000000 
0.062489 0.670340 1.098143 -6.511684 -9.900863 60.990335 1.853643 -0.667210 -17.709195 -4.346789 1.744414 18.565051 -2.078818 6.585566 43.610966 0.000000 0.000000 0.000000 -0.191497 2.527658 -19.122046 -1.606932 1.839070 18.143871 6.420033 -6.525935 35.782528 0.000000 0.000000 0.000000 1.910427 -1.172593 34.444861 -10.572109 3.294240 -78.857087 -2.702692 0.206116 36.051714 18.110960 -7.244255 -33.471194 0.000000 0.000000 0.000000 -12.957244 -7.269178 4.935013 -42.479712 -8.973433 -4.003842 -30.460293 -55.261115 21.109361 0.000000 0.000000 0.000000 27.280710 1.435093 -4.379670 46.019510 -3.849177 -6.501303 42.963325 44.550104 18.093619 0.000000 0.000000 0.000000 
0.061370 0.668060 1.104800 -6.256750 -9.633402 61.870594 1.874454 -0.683504 -17.312411 -4.234874 1.608386 17.697354 -2.132165 6.524378 43.503077 0.000000 0.000000 0.000000 -0.581911 2.483711 -18.934511 -1.378421 1.688364 17.498146 6.051402 -6.819874 35.537138 0.000000 0.000000 0.000000 1.754807 -1.108008 34.670945 -9.545550 3.395721 -75.637033 -3.440668 0.636323 33.033529 17.657178 -6.287817 -34.703005 0.000000 0.000000 0.000000 -11.484272 -5.693317 3.818998 -44.244649 -8.066581 -3.879741 -35.498217 -57.752541 25.574032 0.000000 0.000000 0.000000 25.261774 -0.329344 -5.137008 47.373526 -6.824020 -7.465338 49.296125 45.777711 21.398617 0.000000 0.000000 0.000000 
0.060151 0.666994 1.109749 -6.107652 -9.137122 62.623065 2.391137 -0.676239 -17.038652 -4.437928 1.558491 16.813294 -2.049307 6.494729 42.860034 0.000000 0.000000 0.000000 -0.669569 2.494739 -19.090834 -0.917225 1.534644 17.291396 5.993867 -6.581902 35.011215 0.000000 0.000000 0.000000 2.233789 -1.363858 35.227889 -9.198357 3.242358 -72.669676 -3.659243 0.867465 29.627574 17.330091 -5.655585 -34.758017 0.000000 0.000000 0.000000 -10.445627 -4.256667 2.850980 -45.757728 -6.509880 -3.946894 -41.590169 -59.741099 30.693136 0.000000 0.000000 0.000000 22.948229 -2.579237 -6.037266 48.800829 -9.905229 -8.537470 56.569380 45.846044 24.695883 0.000000 0.000000 0.000000 
0.058718 0.664407 1.113467 -6.036132 -8.875001 63.562071 2.733121 -0.673263 -16.541036 -4.509630 1.482660 15.803683 -1.825097 6.661344 42.700196 0.000000 0.000000 0.000000 -0.616208 2.443262 -18.808308 -0.962335 1.402936 16.106522 5.763648 -6.986136 35.537601 0.000000 0.000000 0.000000 2.201782 -1.332461 35.648553 -8.297564 3.257575 -69.056801 -4.080153 1.119833 26.570336 16.873927 -4.672815 -36.650751 0.000000 0.000000 0.000000 -9.152846 -2.728849 1.902983 -47.736166 -5.321207 -3.965654 -48.178938 -62.214394 37.017043 0.000000 0.000000 0.000000 20.012196 -4.272257 -6.355142 50.809433 -12.267647 -9.659817 63.280464 46.235525 28.183574 0.000000 0.000000 0.000000 
0.057145 0.661789 1.116234 -6.736176 -8.836283 64.381881 3.290945 -0.640132 -15.947508 -4.572789 1.442454 14.805679 -1.689591 6.504994 42.038771 0.000000 0.000000 0.000000 -0.676517 2.473728 -18.954120 -0.743636 1.293477 15.434631 6.135295 -6.697839 35.867214 0.000000 0.000000 0.000000 1.816903 -1.023775 36.812999 -7.173642 3.331275 -66.166748 -4.204835 1.522637 23.466275 16.871728 -4.183756 -37.166105 0.000000 0.000000 0.000000 -7.901706 -1.708938 1.246824 -49.248103 -3.457895 -4.239673 -53.979024 -64.758849 43.113818 0.000000 0.000000 0.000000 17.891634 -5.781689 -6.663913 52.763839 -14.165465 -10.614808 67.715044 45.955878 30.210873 0.000000 0.000000 0.000000 
0.055580 0.657992 1.118378 -6.751247 -8.501119 65.357130 3.509441 -0.654337 -15.526828 -4.872521 1.440282 13.939781 -1.051285 7.173964 42.189732 0.000000 0.000000 0.000000 -0.959630 2.433486 -18.759453 -0.375024 1.102133 14.394551 5.851469 -6.922071 35.729000 0.000000 0.000000 0.000000 1.598046 -0.899526 37.371262 -6.583618 3.164809 -62.843968 -4.143053 1.064031 21.230774 16.165753 -3.330634 -39.079417 0.000000 0.000000 0.000000 -5.366408 0.107241 0.321333 -52.714712 -2.245987 -4.361833 -62.402485 -65.636791 50.802893 0.000000 0.000000 0.000000 15.092356 -6.912598 -6.661561 55.062096 -15.189891 -11.540039 72.330390 45.666307 32.293343 0.000000 0.000000 0.000000 
0.054242 0.653432 1.119813 -7.048810 -8.328544 66.067059 3.760039 -0.654441 -14.939807 -5.181204 1.465179 13.163636 -0.620600 7.509647 42.043149 0.000000 0.000000 0.000000 -1.105703 2.371637 -18.350372 -0.171144 0.996441 13.694250 5.886949 -6.809040 35.476363 0.000000 0.000000 0.000000 1.231420 -0.651461 38.137335 -5.722350 3.098802 -60.326158 -4.161860 0.985789 19.577747 15.460765 -2.693113 -40.349474 0.000000 0.000000 0.000000 -3.477553 1.338348 -0.275636 -55.152261 -0.122472 -4.968179 -70.295067 -66.705702 58.368655 0.000000 0.000000 0.000000 12.906414 -7.750592 -6.538079 56.596038 -15.687857 -12.107770 76.149040 45.699521 34.395374 0.000000 0.000000 0.000000 
0.053416 0.648909 1.120753 -7.717559 -8.282845 66.647211 4.238705 -0.628097 -14.593041 -5.694583 1.648468 13.382784 -0.734053 7.254858 41.786795 0.000000 0.000000 0.000000 -1.150856 2.315573 -17.930691 -0.332165 1.047388 13.814347 6.506186 -5.936281 34.868466 0.000000 0.000000 0.000000 0.673132 -0.239695 38.959463 -4.848193 3.045181 -57.940163 -3.882100 1.450011 18.395840 15.131405 -2.059059 -42.437989 0.000000 0.000000 0.000000 -0.794431 2.578399 -0.838115 -57.624484 1.109972 -5.342139 -74.388431 -65.667881 60.830438 0.000000 0.000000 0.000000 10.509091 -8.362302 -6.122786 57.858679 -15.364833 -12.319392 77.612142 45.845512 35.595045 0.000000 0.000000 0.000000 
0.053141 0.644224 1.121273 -7.533120 -7.760741 67.090745 4.690187 -0.640838 -14.591603 -6.109741 1.791005 14.003979 -0.547749 7.379066 41.011348 0.000000 0.000000 0.000000 -1.233820 2.181362 -17.147644 -0.488455 1.074775 13.974223 6.419686 -5.768218 34.524874 0.000000 0.000000 0.000000 0.678738 -0.237874 40.177430 -4.527413 2.827094 -55.909494 -3.537688 1.242119 17.394226 14.194724 -1.464933 -43.747231 0.000000 0.000000 0.000000 0.952459 3.088725 -1.023040 -59.577417 2.503626 -5.864854 -76.848630 -65.215355 62.388774 0.000000 0.000000 0.000000 8.197821 -8.445662 -5.518867 58.858220 -14.701192 -12.276239 79.208602 46.582314 37.401484 0.000000 0.000000 0.000000 
0.053475 0.639860 1.121643 -8.014920 -7.545754 67.890277 4.864462 -0.642917 -14.379446 -6.724580 2.052126 14.735882 -0.643880 7.235841 40.862535 0.000000 0.000000 0.000000 -1.070849 2.112921 -16.692508 -0.820501 1.213647 14.690911 6.367891 -5.450529 33.251270 0.000000 0.000000 0.000000 0.262047 0.097104 41.225449 -4.019253 2.697473 -53.838066 -3.090218 1.656630 16.394783 13.636521 -0.882369 -45.594991 0.000000 0.000000 0.000000 4.725247 4.070899 -1.278861 -62.505442 3.440114 -6.239488 -78.996499 -63.498646 62.291431 0.000000 0.000000 0.000000 5.705487 -8.427830 -4.807000 59.205155 -13.585019 -11.812265 79.647588 47.229857 38.653914 0.000000 0.000000 0.000000 
0.053998 0.635636 1.121863 -7.983451 -7.235988 68.480493 4.828013 -0.670985 -14.042312 -7.001511 2.177910 15.291465 -0.735544 7.148503 40.613764 0.000000 0.000000 0.000000 -1.191328 1.999643 -15.944908 -1.354648 1.388606 15.418298 6.764223 -4.686671 32.784736 0.000000 0.000000 0.000000 0.089170 0.264020 42.495163 -3.571878 2.518190 -51.780668 -3.014698 1.843883 15.483125 12.288953 -0.273442 -46.917055 0.000000 0.000000 0.000000 7.859770 4.565567 -1.276858 -64.620661 4.854247 -6.974605 -80.556183 -62.225429 62.047829 0.000000 0.000000 0.000000 3.073105 -8.406562 -4.110341 60.803031 -12.484037 -11.693919 79.849749 48.745202 40.572636 0.000000 0.000000 0.000000 
0.054423 0.631058 1.122061 -8.581410 -7.181484 69.323664 4.972899 -0.673505 -13.567751 -7.254217 2.318679 15.609437 -0.779152 6.978961 40.390210 0.000000 0.000000 0.000000 -0.884844 1.941285 -15.588480 -1.926419 1.649046 16.527014 6.835550 -4.263005 31.582769 0.000000 0.000000 0.000000 -0.408129 0.682398 43.071823 -3.206053 2.460376 -50.443875 -2.742898 2.149786 15.662880 12.117861 0.001160 -48.309803 0.000000 0.000000 0.000000 11.651221 5.948410 -1.457427 -67.041888 6.272500 -7.844896 -82.501924 -59.406219 60.793020 0.000000 0.000000 0.000000 0.816224 -8.516466 -3.606219 61.295453 -11.518185 -11.460062 80.377287 48.296648 40.801432 0.000000 0.000000 0.000000 
0.054368 0.626027 1.122209 -8.464906 -7.065404 69.859657 5.145436 -0.692976 -13.031024 -7.403272 2.414415 16.039751 -0.721197 6.883846 39.659988 0.000000 0.000000 0.000000 -0.915632 1.835708 -14.890078 -2.357164 1.839896 17.348471 7.413601 -2.929468 30.269594 0.000000 0.000000 0.000000 -0.637000 0.904533 44.052373 -2.912970 2.306427 -48.684591 -2.877201 1.925267 14.788172 10.702202 0.473250 -49.250293 0.000000 0.000000 0.000000 14.591994 6.446529 -1.349154 -69.042667 8.406360 -9.069796 -84.210124 -57.149459 59.745479 0.000000 0.000000 0.000000 -1.764607 -8.495600 -2.996551 63.095647 -11.234141 -11.844160 80.376100 49.295966 41.837866 0.000000 0.000000 0.000000 
